<svg width="24" height="24" viewBox="0 0 24 24" fill="none" xmlns="http://www.w3.org/2000/svg">
<path fill-rule="evenodd" clip-rule="evenodd" d="M2.92501 5.25L10.2995 10.7125C10.7836 11.0592 11.3813 11.2501 12 11.2501C12.6188 11.2501 13.2164 11.0592 13.7005 10.7125L21.075 5.25H2.92501ZM22.4681 6.09895L14.6114 11.9186C13.8589 12.4597 12.9407 12.7501 12 12.7501C11.0594 12.7501 10.1411 12.4596 9.38863 11.9185L9.37985 11.9122L1.53191 6.09895V18C1.53191 18.1874 1.61121 18.3745 1.76489 18.5181C1.91977 18.6629 2.13713 18.75 2.37082 18.75H21.6292C21.8629 18.75 22.0802 18.6629 22.2351 18.5181C22.3888 18.3745 22.4681 18.1874 22.4681 18V6.09895ZM0.707135 4.39682C1.15419 3.97898 1.75323 3.75 2.37082 3.75H21.6292C22.2468 3.75 22.8458 3.97898 23.2929 4.39682C23.7411 4.8158 24 5.39171 24 6V18C24 18.6083 23.7411 19.1842 23.2929 19.6032C22.8458 20.021 22.2468 20.25 21.6292 20.25H2.37082C1.75323 20.25 1.15419 20.021 0.707135 19.6032C0.258875 19.1842 0 18.6083 0 18V6C0 5.39171 0.258869 4.8158 0.707135 4.39682Z" fill="#666666"/>
</svg>
