<svg width="25" height="25" viewBox="0 0 25 25" fill="none" xmlns="http://www.w3.org/2000/svg">
<g style="mix-blend-mode:luminosity" clip-path="url(#clip0_9474_270611)">
<path d="M10.7812 0.791992L10.6527 0.877876C10.4385 1.0067 10.2672 1.13553 10.0958 1.26435L10.4385 1.0067H13.437L13.9938 5.12913L11.2524 7.87741L8.51093 9.76686V11.9569C8.51093 13.5028 9.3248 14.9199 10.6098 15.6928L13.4798 17.4535L7.39722 21.0176H6.28351L4.09892 19.6864C2.81387 18.9135 2 17.4964 2 15.9505V8.56448C2 7.01857 2.81387 5.60149 4.09892 4.82853L10.6527 0.877876C10.6955 0.834934 10.7384 0.834934 10.7812 0.791992Z" fill="url(#paint0_radial_9474_270611)"/>
<path d="M10.7812 0.791992L10.6527 0.877876C10.4385 1.0067 10.2672 1.13553 10.0958 1.26435L10.4385 1.0067H13.437L13.9938 5.12913L11.2524 7.87741L8.51093 9.76686V11.9569C8.51093 13.5028 9.3248 14.9199 10.6098 15.6928L13.4798 17.4535L7.39722 21.0176H6.28351L4.09892 19.6864C2.81387 18.9135 2 17.4964 2 15.9505V8.56448C2 7.01857 2.81387 5.60149 4.09892 4.82853L10.6527 0.877876C10.6955 0.834934 10.7384 0.834934 10.7812 0.791992Z" fill="url(#paint1_linear_9474_270611)"/>
<path d="M17.2492 9.50928V11.957C17.2492 13.5029 16.4353 14.92 15.1502 15.6929L8.59647 19.6436C7.26858 20.4595 5.59802 20.5024 4.22729 19.7295L10.6097 23.5942C11.9804 24.4531 13.7367 24.4531 15.1074 23.5942L21.704 19.6865C22.9891 18.9136 23.8029 17.4965 23.8029 15.9506V14.1899L23.2461 13.3741L17.2492 9.50928Z" fill="url(#paint2_radial_9474_270611)"/>
<path d="M17.2492 9.50928V11.957C17.2492 13.5029 16.4353 14.92 15.1502 15.6929L8.59647 19.6436C7.26858 20.4595 5.59802 20.5024 4.22729 19.7295L10.6097 23.5942C11.9804 24.4531 13.7367 24.4531 15.1074 23.5942L21.704 19.6865C22.9891 18.9136 23.8029 17.4965 23.8029 15.9506V14.1899L23.2461 13.3741L17.2492 9.50928Z" fill="url(#paint3_linear_9474_270611)"/>
<path d="M21.7038 4.82868L15.1501 0.878021C13.8222 0.0621247 12.1516 0.0191828 10.7809 0.792138L10.6524 0.878021C9.36733 1.65098 8.55347 3.06806 8.55347 4.61397V9.80994L10.6524 8.52168C12.0231 7.66285 13.7793 7.66285 15.1501 8.52168L21.7038 12.4723C22.9889 13.2453 23.7599 14.5765 23.8028 16.0795C23.8028 16.0365 23.8028 15.9936 23.8028 15.9506V8.56463C23.8028 7.06166 22.9889 5.64458 21.7038 4.82868Z" fill="url(#paint4_radial_9474_270611)"/>
<path d="M21.7038 4.82868L15.1501 0.878021C13.8222 0.0621247 12.1516 0.0191828 10.7809 0.792138L10.6524 0.878021C9.36733 1.65098 8.55347 3.06806 8.55347 4.61397V9.80994L10.6524 8.52168C12.0231 7.66285 13.7793 7.66285 15.1501 8.52168L21.7038 12.4723C22.9889 13.2453 23.7599 14.5765 23.8028 16.0795C23.8028 16.0365 23.8028 15.9936 23.8028 15.9506V8.56463C23.8028 7.06166 22.9889 5.64458 21.7038 4.82868Z" fill="url(#paint5_linear_9474_270611)"/>
</g>
<defs>
<radialGradient id="paint0_radial_9474_270611" cx="0" cy="0" r="1" gradientUnits="userSpaceOnUse" gradientTransform="translate(9.31587 4.95485) rotate(110.481) scale(18.2302 31.7375)">
<stop offset="0.06441" stop-color="#AE7FE2"/>
<stop offset="1" stop-color="#0078D4"/>
</radialGradient>
<linearGradient id="paint1_linear_9474_270611" x1="12.7961" y1="17.8602" x2="10.1908" y2="13.3654" gradientUnits="userSpaceOnUse">
<stop stop-color="#114A8B"/>
<stop offset="1" stop-color="#0078D4" stop-opacity="0"/>
</linearGradient>
<radialGradient id="paint2_radial_9474_270611" cx="0" cy="0" r="1" gradientUnits="userSpaceOnUse" gradientTransform="translate(5.50415 19.0087) rotate(-8.38772) scale(16.929 11.2094)">
<stop offset="0.1339" stop-color="#D59DFF"/>
<stop offset="1" stop-color="#5E438F"/>
</radialGradient>
<linearGradient id="paint3_linear_9474_270611" x1="19.1731" y1="11.1647" x2="16.3823" y2="15.1563" gradientUnits="userSpaceOnUse">
<stop stop-color="#493474"/>
<stop offset="1" stop-color="#8C66BA" stop-opacity="0"/>
</linearGradient>
<radialGradient id="paint4_radial_9474_270611" cx="0" cy="0" r="1" gradientUnits="userSpaceOnUse" gradientTransform="translate(22.2005 13.6229) rotate(-165.738) scale(13.5895 22.9268)">
<stop offset="0.0584996" stop-color="#50E6FF"/>
<stop offset="1" stop-color="#436DCD"/>
</radialGradient>
<linearGradient id="paint5_linear_9474_270611" x1="9.07689" y1="8.16693" x2="13.1721" y2="8.16693" gradientUnits="userSpaceOnUse">
<stop stop-color="#2D3F80"/>
<stop offset="1" stop-color="#436DCD" stop-opacity="0"/>
</linearGradient>
<clipPath id="clip0_9474_270611">
<rect width="24" height="24" fill="white" transform="translate(0.761475 0.238281)"/>
</clipPath>
</defs>
</svg>
