<svg width="25" height="25" viewBox="0 0 25 25" fill="none" xmlns="http://www.w3.org/2000/svg">
<g clip-path="url(#clip0_12550_111811)">
<path d="M10.4238 15.8383C9.08462 15.0271 8.24942 13.5487 8.24942 11.9791V4.51034C8.24942 3.72794 8.43662 2.97914 8.78222 2.31674L4.38062 4.98074C3.03662 5.79194 2.20142 7.27034 2.20142 8.83994V15.6319C2.20142 16.3951 2.40302 17.1391 2.75822 17.7919C3.08942 18.3295 3.55982 18.7807 4.14062 19.1071C5.35502 19.7887 6.78542 19.7599 7.97102 19.0351L11.8206 16.6831L10.4238 15.8383ZM21.3246 13.2655L17.2734 10.8415V11.9407C17.2734 13.5007 16.4478 14.9791 15.1182 15.7903L8.47502 19.8559C7.74542 20.3023 6.94382 20.5375 6.13742 20.5567L10.4238 23.1535C11.1438 23.5903 11.955 23.8063 12.7614 23.8063C13.5678 23.8063 14.379 23.5903 15.099 23.1535L19.4574 20.5135L21.147 19.4911C21.2766 19.4143 21.4014 19.3279 21.5214 19.2319C21.5598 19.2079 21.5982 19.1791 21.6318 19.1551C21.9438 18.9007 22.2222 18.6127 22.4526 18.2959C22.4622 18.2815 22.4718 18.2671 22.4814 18.2527C22.851 17.6815 23.0574 17.0095 23.0526 16.3039C23.0478 15.0463 22.4046 13.9087 21.3246 13.2655ZM21.1422 4.98074L16.5486 2.20154L15.099 1.32314C14.8974 1.19834 14.6862 1.09754 14.4702 1.01114C14.235 0.910337 13.9902 0.833536 13.7454 0.785536C12.8622 0.603136 11.9406 0.747136 11.1246 1.21274C9.92462 1.89914 9.20942 3.12794 9.20942 4.51034V9.11834L10.5534 8.32634C11.9166 7.52474 13.6062 7.52954 14.9646 8.34074L21.819 12.4399C22.4382 12.8143 22.947 13.3087 23.3166 13.8895L23.3214 8.83994C23.3214 7.27034 22.4862 5.79194 21.1422 4.98074Z" fill="#666666"/>
</g>
<defs>
<clipPath id="clip0_12550_111811">
<rect width="24" height="24" fill="white" transform="translate(0.761475 0.238281)"/>
</clipPath>
</defs>
</svg>
