<svg width="16" height="17" viewBox="0 0 16 17" fill="none" xmlns="http://www.w3.org/2000/svg">
<path d="M2.26322 11.6413L2.41226 11.6458C2.71047 11.6657 3.00045 11.7522 3.26096 11.8988C3.478 12.0209 3.67002 12.1822 3.8275 12.3741L3.86479 12.4228L3.91402 12.4606C4.02903 12.5552 4.13302 12.6621 4.22414 12.7794L4.31091 12.9001L4.38869 13.0272C4.53506 13.2876 4.62134 13.5775 4.64123 13.8756C4.66112 14.1737 4.61412 14.4725 4.50368 14.75C4.39323 15.0276 4.22213 15.277 4.01692 15.4665C3.62595 15.8574 3.10939 16.093 2.50647 16.2047C1.95597 16.3066 1.38183 16.2994 0.837883 16.2273L0.793288 16.2212L0.750978 16.2151L0.605706 16.1917L0.501472 16.1713C0.308858 16.1292 0.15834 15.9788 0.115959 15.7863L0.111241 15.7642L0.106216 15.7394L0.0838034 15.6139L0.0594867 15.4491C-0.0132365 14.9044 -0.020594 14.3294 0.082061 13.7781C0.194048 13.1767 0.429867 12.661 0.807089 12.2843C1.01005 12.0649 1.25954 11.8938 1.53744 11.7832C1.72261 11.7096 1.91718 11.6641 2.11466 11.648L2.26322 11.6413ZM1.91094 12.7221C1.77314 12.777 1.64945 12.8618 1.53525 12.9847C1.30477 13.2152 1.15295 13.5472 1.07551 13.9631C1.00676 14.3323 1.00139 14.7332 1.0389 15.1221L1.05155 15.2343L1.16388 15.2476C1.42301 15.2724 1.68749 15.2783 1.94438 15.2592L2.13542 15.2401L2.3224 15.211C2.73956 15.1338 3.07219 14.9821 3.31644 14.7384C3.42513 14.6378 3.50998 14.5141 3.56476 14.3764C3.61951 14.2388 3.64281 14.0907 3.63295 13.9429C3.62309 13.7951 3.58031 13.6514 3.50773 13.5222C3.45332 13.4254 3.38319 13.3386 3.30041 13.2652L3.21351 13.1965L3.1681 13.1604L3.12718 13.1195L3.09116 13.074L3.02244 12.9871C2.94911 12.9042 2.8623 12.834 2.76548 12.7795C2.63628 12.7068 2.4925 12.6639 2.34466 12.654C2.19686 12.6441 2.04862 12.6674 1.91094 12.7221ZM15.8569 0.426308C16.0363 0.605687 16.0526 0.886386 15.9058 1.08419L15.8569 1.14086L14.9929 2.00365L15.1212 5.37592C15.1079 5.98613 14.9443 6.58365 14.6449 7.11556C14.3788 7.58836 14.0128 7.99638 13.5659 8.31624L13.3946 8.432L10.0042 10.4783L10.1803 10.9252C10.3175 11.2769 10.3517 11.6604 10.279 12.0308C10.2153 12.355 10.072 12.6574 9.85732 12.9169L9.76099 13.0254L8.25342 14.5382C8.1341 14.6524 7.98482 14.7304 7.82301 14.7631C7.66124 14.7959 7.49345 14.7822 7.35042 14.7276C7.20245 14.6753 7.06972 14.5873 6.9638 14.471C6.87925 14.378 6.81414 14.2695 6.7717 14.1506L6.74417 14.0596L6.27022 12.1283L4.15622 10.0123L2.22485 9.53861C2.07197 9.50045 1.93099 9.42484 1.81458 9.31858C1.6983 9.21241 1.61022 9.07902 1.56246 8.94191C1.50445 8.78803 1.49101 8.62089 1.5237 8.45982C1.54986 8.33085 1.60469 8.2099 1.68831 8.10091L1.75643 8.02148L3.26423 6.51774C3.53704 6.25634 3.87872 6.07816 4.24921 6.00406C4.57337 5.93923 4.90782 5.95643 5.21339 6.04973L5.80955 6.26032L7.85871 2.8708C8.18785 2.35788 8.63816 1.93373 9.16989 1.63573C9.70163 1.33777 10.2984 1.17514 10.9077 1.16215L14.2789 1.28899L15.1423 0.426308C15.3397 0.228991 15.6596 0.228991 15.8569 0.426308ZM9.12688 11.0083L7.30555 12.1077L7.68929 13.6718L9.03696 12.3205C9.13919 12.2131 9.21524 12.084 9.25987 11.9434L9.28738 11.836C9.31601 11.6903 9.31097 11.5406 9.27353 11.3987L9.2394 11.2939L9.12688 11.0083ZM10.9162 2.17271L10.7634 2.18108C10.3777 2.21305 10.0027 2.32743 9.66389 2.51727C9.32512 2.70713 9.03173 2.96732 8.80796 3.27184L8.71639 3.40498L6.48155 7.10165L6.47734 7.11268C6.4663 7.13342 6.45395 7.15314 6.44042 7.17178L5.04778 9.47476L6.80205 11.231L12.8618 7.57342C13.1428 7.3943 13.3874 7.1653 13.584 6.89866L13.6783 6.76226L13.7643 6.61992C13.9549 6.28119 14.0699 5.90591 14.1024 5.54015L14.1112 5.38411L13.9929 2.28994L10.9162 2.17271ZM4.44739 6.99496C4.30173 7.0241 4.16514 7.08596 4.0514 7.17168L3.9706 7.2403L2.61309 8.59291L4.16955 8.97499L5.27622 7.14299L4.9913 7.04179C4.81814 6.97479 4.62946 6.95855 4.44739 6.99496ZM10.9352 3.71219C11.8386 3.71219 12.571 4.44458 12.571 5.34804C12.571 6.2515 11.8386 6.98388 10.9352 6.98388C10.0317 6.98388 9.29932 6.25148 9.29932 5.34804C9.29932 4.44459 10.0317 3.71219 10.9352 3.71219ZM10.9352 4.72272C10.5898 4.72272 10.3098 5.00269 10.3098 5.34804C10.3098 5.69338 10.5898 5.97335 10.9352 5.97335C11.2805 5.97335 11.5605 5.69341 11.5605 5.34804C11.5605 5.00267 11.2805 4.72272 10.9352 4.72272Z" fill="black"/>
</svg>
