<svg width="25" height="25" viewBox="0 0 25 25" fill="none" xmlns="http://www.w3.org/2000/svg">
<path fill-rule="evenodd" clip-rule="evenodd" d="M19.3009 0.252646C19.0569 0.313408 18.861 0.476341 18.7499 0.710644L18.6834 0.850883L18.6761 2.78237L18.6688 4.71385H16.0208C13.3776 4.71385 13.3725 4.71395 13.2253 4.76844C13.0258 4.84226 12.8367 5.03156 12.7629 5.23116C12.7085 5.37846 12.7084 5.38353 12.7084 8.02958V10.6804H10.1269C8.39313 10.6804 7.49568 10.6894 7.39415 10.7079C7.13998 10.7541 6.94096 10.9032 6.81838 11.1394L6.75883 11.2541L6.74609 13.9569L6.73335 16.6597L4.03249 16.6725L1.33163 16.6852L1.20262 16.7534C1.04842 16.8348 0.900204 16.9922 0.825523 17.1538L0.771072 17.2717L0.763428 20.357C0.757899 22.5953 0.763811 23.484 0.784933 23.5945C0.866367 24.02 1.29157 24.3057 1.71648 24.2204C2.00886 24.1617 2.27329 23.9113 2.3363 23.6335C2.35306 23.5595 2.36254 22.5835 2.36295 20.886L2.36356 18.2534L5.04531 18.2531L7.72707 18.2528L7.85864 18.1916C8.01364 18.1193 8.17306 17.9676 8.25473 17.8146L8.3131 17.7052L8.31993 14.996L8.32673 12.2868H10.988C13.6131 12.2868 13.6511 12.2861 13.7896 12.2342C13.968 12.1674 14.1431 11.999 14.2325 11.8079L14.3009 11.6621L14.3079 8.99116L14.3149 6.32023H16.8958C18.6508 6.32023 19.5248 6.31133 19.627 6.29241C19.809 6.25876 20.0128 6.13063 20.1233 5.98039C20.2823 5.76435 20.2776 5.85272 20.27 3.2203L20.2631 0.825385L20.2078 0.705646C20.1385 0.555411 19.9496 0.364201 19.8095 0.302444C19.6786 0.244742 19.4302 0.220416 19.3009 0.252646ZM17.7789 12.2084C17.5388 12.2826 17.3027 12.5043 17.2297 12.7243C17.1724 12.8968 17.189 13.1761 17.2654 13.3251C17.3908 13.57 17.5837 13.717 17.8409 13.7637C17.9405 13.7818 18.6768 13.7912 20.0026 13.7912H22.0132L17.4564 18.368C13.7139 22.1268 12.8858 22.9707 12.823 23.0897C12.7562 23.2164 12.7466 23.2606 12.747 23.4404C12.7474 23.6924 12.8043 23.8328 12.9752 24.0039C13.139 24.1677 13.2859 24.2283 13.5237 24.2298C13.9088 24.2322 13.4729 24.639 18.5812 19.5101L23.1424 14.9305L23.1551 17.0445L23.1678 19.1585L23.2393 19.3042C23.4211 19.6746 23.8539 19.8484 24.2373 19.7048C24.4104 19.64 24.6127 19.4509 24.6915 19.2801L24.7476 19.1585L24.7545 16.0056L24.7615 12.8528L24.7065 12.7057C24.6398 12.5273 24.4883 12.3567 24.3155 12.2654L24.187 12.1976L21.0148 12.1932C19.2701 12.1908 17.8139 12.1976 17.7789 12.2084Z" fill="#666666"/>
</svg>
