<svg width="24" height="24" viewBox="0 0 24 24" fill="none" xmlns="http://www.w3.org/2000/svg">
<path d="M2.15901 2.15901C2.58097 1.73705 3.15326 1.5 3.75 1.5H11.25C11.8467 1.5 12.419 1.73705 12.841 2.15901C13.2629 2.58097 13.5 3.15326 13.5 3.75V8.72409C13.5 9.1383 13.8358 9.47409 14.25 9.47409C14.6642 9.47409 15 9.1383 15 8.72409V3.75C15 2.75544 14.6049 1.80161 13.9017 1.09835C13.1984 0.395088 12.2446 0 11.25 0H3.75C2.75544 0 1.80161 0.395088 1.09835 1.09835C0.395088 1.80161 0 2.75544 0 3.75V20.25C0 21.2446 0.395088 22.1984 1.09835 22.9017C1.80161 23.6049 2.75544 24 3.75 24H7.75C8.16421 24 8.5 23.6642 8.5 23.25C8.5 22.8358 8.16421 22.5 7.75 22.5H3.75C3.15326 22.5 2.58097 22.2629 2.15901 21.841C1.73705 21.419 1.5 20.8467 1.5 20.25V19.875H7.75C8.16421 19.875 8.5 19.5392 8.5 19.125C8.5 18.7108 8.16421 18.375 7.75 18.375H1.5V3.75C1.5 3.15326 1.73705 2.58097 2.15901 2.15901Z" fill="white"/>
<path d="M10.5 18.5022C10.5 18.088 10.8358 17.7522 11.25 17.7522H11.9126C11.9223 17.752 11.932 17.752 11.9417 17.7522H15C15.4142 17.7522 15.75 18.088 15.75 18.5022C15.75 18.9164 15.4142 19.2522 15 19.2522H12.9295C13.2089 19.9372 13.6438 20.5528 14.2049 21.0477C15.0011 21.7499 16.0069 22.1698 17.0661 22.2421C18.1253 22.3144 19.1788 22.035 20.0631 21.4475C20.9474 20.8599 21.613 19.9969 21.9567 18.9924C22.0908 18.6005 22.5173 18.3915 22.9092 18.5256C23.3011 18.6597 23.51 19.0861 23.3759 19.478C22.9253 20.795 22.0526 21.9265 20.8932 22.6968C19.7339 23.4672 18.3527 23.8334 16.964 23.7386C15.5752 23.6438 14.2566 23.0933 13.2127 22.1726C12.7353 21.7516 12.3275 21.2639 12 20.7279V22.2522C12 22.6664 11.6642 23.0022 11.25 23.0022C10.8358 23.0022 10.5 22.6664 10.5 22.2522V18.5022Z" fill="white"/>
<path d="M23.25 11.0022C23.6642 11.0022 24 11.338 24 11.7522V15.5022C24 15.9164 23.6642 16.2522 23.25 16.2522H22.6136C22.5855 16.2538 22.5576 16.2538 22.53 16.2522H19.5C19.0858 16.2522 18.75 15.9164 18.75 15.5022C18.75 15.088 19.0858 14.7522 19.5 14.7522H21.569C21.2896 14.0676 20.8548 13.4524 20.294 12.9578C19.4978 12.2556 18.492 11.8357 17.4328 11.7634C16.3736 11.6911 15.3201 11.9704 14.4358 12.558C13.5516 13.1456 12.8859 14.0086 12.5422 15.0131C12.4081 15.405 11.9817 15.614 11.5898 15.4799C11.1979 15.3458 10.9889 14.9193 11.123 14.5274C11.5736 13.2105 12.4463 12.079 13.6057 11.3087C14.765 10.5383 16.1462 10.1721 17.535 10.2669C18.9237 10.3617 20.2423 10.9121 21.2862 11.8329C21.7642 12.2544 22.1723 12.7427 22.5 13.2794V11.7522C22.5 11.338 22.8358 11.0022 23.25 11.0022Z" fill="white"/>
</svg>
