<svg width="25" height="25" viewBox="0 0 25 25" fill="none" xmlns="http://www.w3.org/2000/svg">
<path d="M12.761 0.239671C15.9193 0.211353 19.0479 0.850214 21.9427 2.11369L21.9554 2.11858C22.3472 2.298 22.6788 2.58714 22.9104 2.95061C23.1415 3.3132 23.2633 3.73458 23.261 4.16448V11.7768C23.261 14.335 22.4856 16.833 21.0374 18.9418C19.5892 21.0505 17.5362 22.6708 15.1487 23.5893L14.1077 23.9897C13.6745 24.1563 13.2174 24.2397 12.761 24.2397C12.3046 24.2397 11.8476 24.1563 11.4143 23.9897L10.3733 23.5893C7.98587 22.6708 5.93281 21.0505 4.48465 18.9418C3.03642 16.833 2.26107 14.335 2.26102 11.7768V4.16448C2.25875 3.73458 2.38055 3.3132 2.6116 2.95061C2.84325 2.58714 3.1748 2.298 3.56668 2.11858L3.57938 2.11369C6.47415 0.850216 9.6027 0.211353 12.761 0.239671ZM12.7542 1.73967C9.80722 1.71233 6.88721 2.30688 4.18582 3.48479C4.05905 3.54404 3.95153 3.63821 3.87625 3.75627C3.79993 3.87603 3.76007 4.01563 3.76102 4.15764V11.7768C3.76107 14.0316 4.44454 16.2334 5.72098 18.0922C6.99755 19.951 8.8078 21.3802 10.9124 22.1899L11.9534 22.5893C12.2134 22.6893 12.4871 22.7397 12.761 22.7397C13.0349 22.7397 13.3087 22.6893 13.5686 22.5893L14.6097 22.1899C16.7142 21.3802 18.5245 19.951 19.8011 18.0922C21.0775 16.2334 21.761 14.0316 21.761 11.7768V4.15764C21.762 4.01563 21.7221 3.87603 21.6458 3.75627C21.5705 3.63821 21.463 3.54404 21.3362 3.48479C18.6348 2.30688 15.7148 1.71233 12.7679 1.73967H12.7542ZM12.761 5.23967C13.6576 5.2397 14.5312 5.56259 15.1858 6.15666C15.8427 6.75299 16.2278 7.57892 16.2278 8.45745V9.41448H16.2425C16.2564 9.4149 16.2743 9.41515 16.2942 9.41643C16.3341 9.41901 16.3866 9.42479 16.4475 9.43401C16.5658 9.4519 16.737 9.4885 16.9182 9.57073C17.1007 9.65354 17.3179 9.79324 17.4895 10.0268C17.6675 10.2691 17.761 10.565 17.761 10.892V15.7778L17.76 15.7983C17.7595 15.8134 17.7587 15.8322 17.7571 15.853C17.7538 15.8947 17.747 15.9489 17.7356 16.0112C17.7132 16.133 17.6671 16.3063 17.5677 16.4867C17.4657 16.6716 17.3048 16.8698 17.0598 17.018C16.8132 17.1671 16.5244 17.2397 16.2102 17.2397H9.2786C9.26475 17.2392 9.24746 17.238 9.22781 17.2367C9.188 17.2342 9.13533 17.2293 9.07449 17.2201C8.95622 17.2022 8.78495 17.1646 8.60379 17.0824C8.42133 16.9996 8.20406 16.8599 8.0325 16.6264C7.85469 16.3843 7.7612 16.0888 7.76102 15.7621V10.8764L7.76199 10.8559C7.76255 10.8408 7.76331 10.8219 7.76492 10.8012C7.76821 10.7594 7.774 10.7044 7.78543 10.642C7.80779 10.5203 7.85426 10.3476 7.9534 10.1674C8.05531 9.98245 8.2172 9.78451 8.46219 9.63616C8.70427 9.48971 8.98676 9.4162 9.29422 9.4135V8.45745C9.29422 7.57903 9.67945 6.75297 10.3362 6.15666C10.9908 5.56265 11.8645 5.23976 12.761 5.23967ZM12.761 11.8862C12.347 11.8864 12.011 12.2221 12.011 12.6362V14.1362C12.0114 14.5499 12.3472 14.886 12.761 14.8862C13.1749 14.886 13.5106 14.55 13.511 14.1362V12.6362C13.511 12.222 13.1751 11.8863 12.761 11.8862ZM12.761 6.8051C12.2347 6.80519 11.7425 6.99582 11.3909 7.31487C11.0422 7.63166 10.8616 8.04489 10.8616 8.45745V9.4135H14.6595V8.45745C14.6595 8.04478 14.4801 7.63169 14.1311 7.31487C13.7795 6.99577 13.2874 6.80513 12.761 6.8051Z" fill="#666666"/>
</svg>
