<svg width="20" height="20" viewBox="0 0 20 20" fill="none" xmlns="http://www.w3.org/2000/svg">
<g clip-path="url(#clip0_23923_697)">
<path d="M8.26087 6.95652C8.50099 6.95652 8.69565 7.15118 8.69565 7.3913V15.0435C8.69565 15.2836 8.50099 15.4783 8.26087 15.4783C8.02074 15.4783 7.82608 15.2836 7.82608 15.0435V7.3913C7.82608 7.15118 8.02074 6.95652 8.26087 6.95652Z" fill="#BC0055"/>
<path d="M12.1739 7.3913C12.1739 7.15118 11.9792 6.95652 11.7391 6.95652C11.499 6.95652 11.3043 7.15118 11.3043 7.3913V15.0435C11.3043 15.2836 11.499 15.4783 11.7391 15.4783C11.9792 15.4783 12.1739 15.2836 12.1739 15.0435V7.3913Z" fill="#BC0055"/>
<path fill-rule="evenodd" clip-rule="evenodd" d="M5.82233 3.327V1.26654C5.82233 0.930633 5.95577 0.608483 6.19329 0.370961C6.43081 0.133439 6.75296 0 7.08887 0H12.9112C13.2471 0 13.5692 0.133438 13.8068 0.370961C14.0443 0.608484 14.1777 0.930634 14.1777 1.26654V3.327H19.5652C19.8053 3.327 20 3.52166 20 3.76178C20 4.00191 19.8053 4.19656 19.5652 4.19656H17.8772L16.4111 18.121C16.3569 18.6365 16.1138 19.1137 15.7287 19.4607C15.3436 19.8076 14.8437 19.9997 14.3253 20H5.67482C5.15629 20 4.65613 19.808 4.2708 19.461C3.88546 19.114 3.64225 18.6367 3.58806 18.121L2.12272 4.19656H0.434782C0.194659 4.19656 0 4.00191 0 3.76178C0 3.52166 0.194659 3.327 0.434782 3.327H5.82233ZM6.80816 0.985836C6.88261 0.911389 6.98358 0.869565 7.08887 0.869565H12.9112C13.0165 0.869565 13.1174 0.911389 13.1919 0.985836C13.2663 1.06028 13.3081 1.16126 13.3081 1.26654V3.327H6.69189V1.26654C6.69189 1.16126 6.73372 1.06028 6.80816 0.985836ZM6.25168 4.19656L6.25711 4.1966L6.26254 4.19656H13.7375L13.7429 4.1966L13.7484 4.19656H17.0028L15.5462 18.0301C15.5145 18.332 15.3722 18.6114 15.1467 18.8146C14.9212 19.0178 14.6284 19.1303 14.3249 19.1304H5.67484C5.3712 19.1304 5.07831 19.018 4.85267 18.8148C4.62702 18.6116 4.48459 18.332 4.45286 18.03L2.99709 4.19656H6.25168Z" fill="#BC0055"/>
</g>
<defs>
<clipPath id="clip0_23923_697">
<rect width="20" height="20" fill="white"/>
</clipPath>
</defs>
</svg>
