<svg width="24" height="24" viewBox="0 0 24 24" fill="none" xmlns="http://www.w3.org/2000/svg">
<path d="M22.4996 8.2728C22.4619 9.57842 21.9251 10.8199 20.9996 11.7416L17.7417 15.0012C17.2673 15.4783 16.7029 15.8565 16.0812 16.114C15.4596 16.3715 14.793 16.5031 14.1202 16.5012H14.1155C13.4312 16.5008 12.7538 16.3631 12.1236 16.0965C11.4933 15.8298 10.9229 15.4396 10.446 14.9488C9.96909 14.458 9.59538 13.8766 9.34695 13.2389C9.09851 12.6013 8.98039 11.9203 8.99956 11.2362C9.00515 11.0373 9.08954 10.8488 9.23414 10.7121C9.37875 10.5754 9.57174 10.5017 9.77065 10.5073C9.96956 10.5129 10.1581 10.5973 10.2948 10.7419C10.4315 10.8865 10.5052 11.0795 10.4996 11.2784C10.4859 11.7621 10.5693 12.2436 10.7449 12.6945C10.9205 13.1454 11.1847 13.5565 11.5219 13.9036C11.8591 14.2506 12.2624 14.5266 12.708 14.7151C13.1537 14.9036 13.6326 15.0009 14.1164 15.0012C14.5921 15.0025 15.0633 14.9094 15.5027 14.7274C15.9422 14.5454 16.3412 14.2781 16.6767 13.9409L19.9346 10.6831C20.6067 10.0025 20.9823 9.0836 20.9793 8.12703C20.9763 7.17046 20.595 6.25393 19.9186 5.57753C19.2422 4.90113 18.3256 4.51981 17.3691 4.51682C16.4125 4.51382 15.4936 4.8894 14.813 5.56155L13.7817 6.5928C13.6399 6.72752 13.4511 6.80151 13.2556 6.79901C13.06 6.7965 12.8731 6.7177 12.7348 6.5794C12.5965 6.4411 12.5177 6.25424 12.5152 6.05867C12.5127 5.8631 12.5867 5.67429 12.7214 5.53249L13.7527 4.50124C14.2285 4.0253 14.7933 3.64775 15.4151 3.39017C16.0368 3.13258 16.7032 3 17.3761 3C18.0491 3 18.7155 3.13258 19.3372 3.39017C19.9589 3.64775 20.5238 4.0253 20.9996 4.50124C21.4924 4.99526 21.8795 5.5844 22.1374 6.23279C22.3952 6.88118 22.5185 7.57527 22.4996 8.2728ZM10.2183 17.4069L9.18706 18.4381C8.85071 18.7767 8.4504 19.0451 8.00942 19.2276C7.56843 19.4101 7.09556 19.5031 6.61831 19.5012C5.90234 19.5007 5.20261 19.2879 4.60752 18.8898C4.01244 18.4917 3.54871 17.9261 3.27492 17.2646C3.00113 16.603 2.92957 15.8752 3.06928 15.173C3.20899 14.4708 3.55371 13.8257 4.05987 13.3194L7.31206 10.0616C7.8243 9.54661 8.47953 9.19759 9.19267 9.05982C9.90582 8.92205 10.6439 9.0019 11.3111 9.28899C11.9783 9.57608 12.5437 10.0571 12.934 10.6697C13.3242 11.2823 13.5213 11.9981 13.4996 12.7241C13.494 12.923 13.5676 13.116 13.7043 13.2606C13.841 13.4052 14.0296 13.4896 14.2285 13.4951C14.4274 13.5007 14.6204 13.4271 14.765 13.2904C14.9096 13.1537 14.994 12.9652 14.9996 12.7662C15.0176 12.0698 14.8939 11.377 14.636 10.7298C14.3782 10.0826 13.9915 9.4945 13.4996 9.00124C12.5388 8.04089 11.236 7.50141 9.87753 7.50141C8.51909 7.50141 7.21626 8.04089 6.2555 9.00124L2.99956 12.2591C2.28352 12.9748 1.79573 13.8867 1.59782 14.8796C1.39991 15.8725 1.50076 16.9018 1.88764 17.8374C2.27451 18.7729 2.93005 19.5729 3.77139 20.136C4.61274 20.6991 5.60214 21.0002 6.61456 21.0012C7.28756 21.0032 7.95427 20.8716 8.57607 20.6141C9.19788 20.3567 9.76243 19.9784 10.2371 19.5012L11.2683 18.47C11.3897 18.327 11.4531 18.1438 11.446 17.9564C11.439 17.769 11.362 17.591 11.2302 17.4576C11.0984 17.3241 10.9214 17.2449 10.7341 17.2355C10.5468 17.2262 10.3628 17.2873 10.2183 17.4069Z" fill="#BC0055"/>
</svg>
