<svg width="25" height="24" viewBox="0 0 25 24" fill="none" xmlns="http://www.w3.org/2000/svg">
<path d="M12.9038 0C16.0864 0 19.1387 1.26421 21.3892 3.51465C23.6396 5.76509 24.9038 8.8174 24.9038 12C24.9038 15.1826 23.6396 18.2349 21.3892 20.4854C19.1387 22.7358 16.0864 24 12.9038 24C9.72121 24 6.66889 22.7358 4.41846 20.4854C2.16802 18.2349 0.903809 15.1826 0.903809 12C0.903809 8.8174 2.16802 5.76509 4.41846 3.51465C6.66889 1.26421 9.72121 0 12.9038 0ZM12.9038 1.5C10.119 1.5 7.44814 2.60606 5.479 4.5752C3.50987 6.54433 2.40381 9.21523 2.40381 12C2.40381 14.7848 3.50987 17.4557 5.479 19.4248C7.44814 21.3939 10.119 22.5 12.9038 22.5C15.6886 22.5 18.3595 21.3939 20.3286 19.4248C22.2977 17.4557 23.4038 14.7848 23.4038 12C23.4038 9.21523 22.2977 6.54433 20.3286 4.5752C18.3595 2.60606 15.6886 1.5 12.9038 1.5ZM12.9038 6.00098C13.318 6.00098 13.6538 6.33676 13.6538 6.75098V11.252H18.1538C18.5679 11.2521 18.9038 11.5878 18.9038 12.002C18.9036 12.4159 18.5678 12.7518 18.1538 12.752H13.6538V17.251C13.6538 17.6652 13.318 18.001 12.9038 18.001C12.4897 18.0008 12.1538 17.6651 12.1538 17.251V12.752H7.65381C7.23975 12.752 6.90406 12.416 6.90381 12.002C6.90381 11.5877 7.23959 11.252 7.65381 11.252H12.1538V6.75098C12.1538 6.33685 12.4897 6.00112 12.9038 6.00098Z" fill="#666666"/>
</svg>
