<svg width="375" height="92" viewBox="0 0 375 92" fill="none" xmlns="http://www.w3.org/2000/svg">
<g clip-path="url(#clip0_9474_260365)">
<rect width="375" height="120" fill="#222633"/>
<rect width="375" height="120" fill="url(#paint0_radial_9474_260365)"/>
<rect width="375" height="120" fill="url(#paint1_radial_9474_260365)"/>
<rect width="375" height="120" fill="url(#paint2_radial_9474_260365)"/>
<rect width="375" height="120" fill="url(#paint3_radial_9474_260365)" fill-opacity="0.6"/>
<rect width="375" height="120" fill="url(#paint4_radial_9474_260365)" fill-opacity="0.5"/>
<path d="M116.656 30.8716V43.7416L123.166 36.4816H126.526L120.376 43.1716L127.366 52.6216H124.036L118.546 45.1816L116.656 47.2216V52.6216H113.926V30.8716H116.656ZM136.453 30.4816C140.353 30.4816 143.863 32.2216 144.703 36.4216H141.733C140.983 33.9016 138.523 33.0616 136.333 33.0616C134.653 33.0616 131.713 33.8116 131.713 36.2416C131.713 38.1616 133.243 39.1216 135.253 39.5716L137.773 40.1416C141.103 40.8616 145.093 42.1216 145.093 46.5016C145.093 50.7616 141.133 53.0116 136.813 53.0116C131.683 53.0116 128.443 50.2216 127.873 45.8716H130.873C131.443 48.8716 133.543 50.4316 136.873 50.4316C140.083 50.4316 141.943 48.9016 141.943 46.7716C141.943 44.4916 139.993 43.5316 137.263 42.9316L134.563 42.3616C131.593 41.7016 128.593 40.0516 128.593 36.4216C128.593 32.2816 132.943 30.4816 136.453 30.4816ZM158.428 50.3116C157.498 51.8416 156.028 53.0116 153.358 53.0116C149.608 53.0116 148.198 50.4916 148.198 46.8016V36.4816H150.928V45.9916C150.928 48.4816 151.348 50.6416 154.318 50.6416C156.898 50.6416 158.428 48.8116 158.428 45.3616V36.4816H161.158V52.6216H158.428V50.3116ZM168.219 30.8716V34.1716H165.489V30.8716H168.219ZM168.219 36.4816V52.6216H165.489V36.4816H168.219ZM173.329 32.4316H176.059V36.4816H179.119V38.6716H176.059V48.2416C176.059 49.9216 176.179 50.3416 177.739 50.3416H179.119V52.6216H177.139C174.049 52.6216 173.329 51.9316 173.329 48.5716V38.6716H170.779V36.4816H173.329V32.4316ZM183.989 45.4516C184.109 48.9316 186.569 50.6116 188.969 50.6116C191.369 50.6116 192.689 49.5316 193.379 47.9416H196.199C195.449 50.7316 192.899 53.0116 188.969 53.0116C183.869 53.0116 181.049 49.3516 181.049 44.5816C181.049 39.4816 184.469 36.2116 188.879 36.2116C193.799 36.2116 196.769 40.3516 196.409 45.4516H183.989ZM184.019 43.1116H193.529C193.469 40.8316 191.759 38.5516 188.879 38.5516C186.449 38.5516 184.259 39.8716 184.019 43.1116Z" fill="white"/>
<rect x="217.766" y="30.6216" width="46" height="24" rx="4" stroke="url(#paint5_linear_9474_260365)"/>
<path d="M229.965 37.9216C231.753 37.9216 233.793 38.1736 233.793 40.8016C233.793 43.0216 232.017 43.5616 230.013 43.5616H228.705V46.6216H226.989V37.9216H229.965ZM228.705 39.2656V42.2296H230.121C231.189 42.2296 232.029 41.9656 232.029 40.8136C232.029 39.3856 230.937 39.2656 230.001 39.2656H228.705ZM240.194 43.2136H238.37V46.6216H236.654V37.9216H239.51C242.378 37.9216 243.47 38.7376 243.47 40.5616C243.47 41.5576 242.978 42.3976 241.898 42.8536L243.83 46.6216H241.922L240.194 43.2136ZM238.37 39.2656V41.8816H239.786C241.118 41.8816 241.706 41.4256 241.706 40.5736C241.706 39.5656 240.866 39.2656 239.702 39.2656H238.37ZM250.628 46.7776C248.036 46.7776 246.368 44.9656 246.368 42.2656C246.368 39.5656 248.036 37.7656 250.628 37.7656C253.22 37.7656 254.888 39.5656 254.888 42.2656C254.888 44.9656 253.22 46.7776 250.628 46.7776ZM250.628 45.4096C251.984 45.4096 253.112 44.3056 253.112 42.2656C253.112 40.2256 251.984 39.1336 250.628 39.1336C249.272 39.1336 248.144 40.2256 248.144 42.2656C248.144 44.3056 249.272 45.4096 250.628 45.4096Z" fill="white"/>
<path d="M0 80V120H375V80C375 80 281.25 91.7853 187.5 91.7853C93.75 91.7853 0 80 0 80Z" fill="white"/>
</g>
<defs>
<radialGradient id="paint0_radial_9474_260365" cx="0" cy="0" r="1" gradientUnits="userSpaceOnUse" gradientTransform="translate(365 161) rotate(-90) scale(155.9 279.409)">
<stop stop-color="#FD8C3D"/>
<stop offset="1" stop-color="#222633" stop-opacity="0"/>
</radialGradient>
<radialGradient id="paint1_radial_9474_260365" cx="0" cy="0" r="1" gradientUnits="userSpaceOnUse" gradientTransform="translate(296.5 193) rotate(-90) scale(188.024 115.74)">
<stop stop-color="#F34BBB"/>
<stop offset="1" stop-color="#222633" stop-opacity="0"/>
</radialGradient>
<radialGradient id="paint2_radial_9474_260365" cx="0" cy="0" r="1" gradientUnits="userSpaceOnUse" gradientTransform="translate(187 250) rotate(-90) scale(248 205.08)">
<stop offset="0.0138958" stop-color="#A055FC"/>
<stop offset="1" stop-color="#222633" stop-opacity="0"/>
</radialGradient>
<radialGradient id="paint3_radial_9474_260365" cx="0" cy="0" r="1" gradientUnits="userSpaceOnUse" gradientTransform="translate(94.5 228.5) rotate(-90) scale(221 160.679)">
<stop stop-color="#337CFF"/>
<stop offset="1" stop-color="#222633" stop-opacity="0.5"/>
</radialGradient>
<radialGradient id="paint4_radial_9474_260365" cx="0" cy="0" r="1" gradientUnits="userSpaceOnUse" gradientTransform="translate(9 302) rotate(-90.5739) scale(299.515 309.016)">
<stop stop-color="#1DDDFD"/>
<stop offset="1" stop-color="#222633" stop-opacity="0.7"/>
</radialGradient>
<linearGradient id="paint5_linear_9474_260365" x1="217.766" y1="42.6216" x2="263.766" y2="42.6216" gradientUnits="userSpaceOnUse">
<stop stop-color="#1DDDFD"/>
<stop offset="0.25" stop-color="#337CFF"/>
<stop offset="0.5" stop-color="#A055FC"/>
<stop offset="0.755" stop-color="#F34BBB"/>
<stop offset="1" stop-color="#FD8C3D"/>
</linearGradient>
<clipPath id="clip0_9474_260365">
<rect width="375" height="92" fill="white"/>
</clipPath>
</defs>
</svg>
