<svg width="25" height="25" viewBox="0 0 25 25" fill="none" xmlns="http://www.w3.org/2000/svg">
<path fill-rule="evenodd" clip-rule="evenodd" d="M1.53527 2.3641C2.0099 1.95356 2.63231 1.73828 3.26177 1.73828H8.46457C9.09403 1.73828 9.71645 1.95356 10.1911 2.3641C10.6692 2.77771 10.9648 3.36523 10.9648 4.00668V4.73849H22.3387C22.9682 4.73849 23.5906 4.95377 24.0652 5.36431C24.6162 5.84092 24.7615 6.47417 24.7615 7.00689V20.3201C24.7514 20.9481 24.4797 21.5304 24.0318 21.9659C23.5867 22.3988 22.9948 22.6626 22.3723 22.7333C22.3437 22.7366 22.3149 22.7382 22.2861 22.7382L3.23695 22.7383C3.20816 22.7383 3.17939 22.7367 3.15079 22.7334C2.52827 22.6627 1.93638 22.3989 1.49119 21.966C1.04335 21.5305 0.771705 20.9482 0.761671 20.3201L0.761475 20.3078L0.761573 4.00668C0.761573 3.36523 1.0571 2.77771 1.53527 2.3641ZM3.26177 3.27487C2.97131 3.27487 2.71149 3.37568 2.53564 3.52779C2.36334 3.67683 2.29343 3.85242 2.29343 4.00668V20.3005C2.29779 20.488 2.379 20.6892 2.55739 20.8627C2.73251 21.033 2.98711 21.1601 3.28462 21.2017L22.2384 21.2016C22.5359 21.16 22.7905 21.0329 22.9657 20.8626C23.1441 20.6891 23.2253 20.4879 23.2296 20.3004V7.00689C23.2296 6.74391 23.1643 6.61404 23.0649 6.528C22.889 6.37589 22.6292 6.27508 22.3387 6.27508H10.1988C9.77583 6.27508 9.43292 5.9311 9.43292 5.50679V4.00668C9.43292 3.85242 9.36301 3.67683 9.1907 3.52779C9.01486 3.37568 8.75503 3.27487 8.46457 3.27487H3.26177Z" fill="#666666"/>
</svg>
