<?xml version="1.0" encoding="UTF-8" standalone="no"?>
<!DOCTYPE svg PUBLIC "-//W3C//DTD SVG 1.1//EN" "http://www.w3.org/Graphics/SVG/1.1/DTD/svg11.dtd">
<!-- Created with Vectornator (http://vectornator.io/) -->
<svg height="24.0pt" stroke-miterlimit="10" style="fill-rule:nonzero;clip-rule:evenodd;stroke-linecap:round;stroke-linejoin:round;" version="1.1" viewBox="0 0 24 24" width="24.0pt" xml:space="preserve" xmlns="http://www.w3.org/2000/svg" xmlns:xlink="http://www.w3.org/1999/xlink">
<defs/>
<g id="Sans-titre">
<path d="M11.4819 0.0133061C9.58288 0.0849091 7.7277 0.618604 6.02938 1.58185C5.06194 2.13058 3.95306 3.01475 3.19066 3.84543C1.98704 5.15678 1.09726 6.67648 0.566266 8.32786C0.335548 9.04536 0.147907 9.92449 0.0599604 10.7001C-0.0141716 11.3538-0.0141716 12.6521 0.0599604 13.3058C0.218939 14.7077 0.603821 16.0308 1.21292 17.2693C1.50749 17.8683 1.63514 18.0905 2.00713 18.652C2.88462 19.9765 4.01746 21.109 5.34952 21.9936C5.90983 22.3658 6.13131 22.4931 6.73415 22.7896C8.53434 23.6751 10.4131 24.0658 12.512 23.991C14.1581 23.9324 15.7666 23.5257 17.263 22.7896C17.8659 22.4931 18.0873 22.3658 18.6476 21.9936C19.9808 21.1083 21.1055 19.9837 21.9894 18.652C22.3616 18.0914 22.4889 17.8699 22.7852 17.2674C23.6707 15.4672 24.0614 13.5884 23.9867 11.4896C23.928 9.84339 23.5213 8.23494 22.7852 6.73854C22.4889 6.13605 22.3616 5.91452 21.9894 5.35391C21.1055 4.02217 19.9808 2.8976 18.6476 2.01226C18.0873 1.64016 17.8659 1.51283 17.263 1.2163C15.7946 0.494024 14.1418 0.0698981 12.6105 0.0223891C12.3562 0.0145031 12.1115 0.0049581 12.0666 0.0012051C12.0217-0.0025749 11.7586 0.0028911 11.4819 0.0133061ZM11.5363 1.71475C10.1152 1.77928 8.75859 2.12726 7.47069 2.75766C6.39675 3.2833 5.58016 3.86819 4.72198 4.72637C3.50835 5.93998 2.69088 7.2901 2.15999 8.95772C1.8534 9.92079 1.70925 10.9012 1.71025 12.0166C1.71169 13.6521 2.03941 15.0701 2.75354 16.5308C3.03125 17.0989 3.26784 17.5 3.59398 17.9558C5.14428 20.1223 7.40384 21.5884 9.98617 22.1033C11.2842 22.3622 12.713 22.3622 14.011 22.1033C16.2516 21.6565 18.2681 20.4837 19.7813 18.7472C22.1862 15.9874 22.9315 12.1158 21.7283 8.63271C21.0483 6.66397 19.7961 4.96247 18.1037 3.70748C16.2385 2.32423 13.8793 1.60839 11.5363 1.71475ZM11.801 7.19035C11.6284 7.23367 11.495 7.3165 11.3652 7.46093C11.1462 7.70451 11.1564 7.5798 11.1547 10.0253L11.1532 12.1948L11.2238 12.3522C11.2872 12.4935 11.5598 12.7748 13.8833 15.0967C16.7742 17.9857 16.5885 17.822 16.9752 17.822C17.3194 17.822 17.5825 17.6602 17.7353 17.3542C17.806 17.2129 17.8182 17.158 17.8179 16.982C17.8174 16.5935 17.9649 16.7622 15.261 14.0561L12.8426 11.6358L12.8353 9.70499L12.828 7.77421L12.7646 7.65184C12.6756 7.4803 12.5031 7.31144 12.3491 7.2452C12.1953 7.17903 11.9455 7.15404 11.801 7.19035Z" fill="#000000" fill-rule="evenodd" opacity="1" stroke="none"/>
</g>
</svg>
