<svg width="25" height="25" viewBox="0 0 25 25" fill="none" xmlns="http://www.w3.org/2000/svg">
<path fill-rule="evenodd" clip-rule="evenodd" d="M11.9775 0.923212C10.0785 0.994815 8.22334 1.52851 6.52502 2.49176C5.55758 3.04049 4.4487 3.92466 3.6863 4.75534C2.48268 6.06669 1.5929 7.58639 1.0619 9.23777C0.831187 9.95527 0.643546 10.8344 0.555599 11.61C0.481467 12.2637 0.481467 13.562 0.555599 14.2157C0.714578 15.6176 1.09946 16.9407 1.70856 18.1792C2.00313 18.7782 2.13078 19.0004 2.50277 19.5619C3.38026 20.8864 4.5131 22.0189 5.84516 22.9035C6.40547 23.2757 6.62695 23.403 7.22979 23.6995C9.02998 24.585 10.9087 24.9757 13.0076 24.9009C14.6537 24.8423 16.2622 24.4356 17.7586 23.6995C18.3615 23.403 18.5829 23.2757 19.1432 22.9035C20.4764 22.0182 21.6011 20.8936 22.485 19.5619C22.8572 19.0013 22.9845 18.7798 23.2808 18.1773C24.1663 16.3771 24.557 14.4983 24.4823 12.3995C24.4236 10.7533 24.0169 9.14485 23.2808 7.64845C22.9845 7.04596 22.8572 6.82443 22.485 6.26382C21.6011 4.93208 20.4764 3.80751 19.1432 2.92217C18.5829 2.55007 18.3615 2.42274 17.7586 2.12621C16.2902 1.40393 14.6374 0.979804 13.1061 0.932295C12.8518 0.924409 12.6071 0.914864 12.5622 0.911111C12.5173 0.907331 12.2542 0.912797 11.9775 0.923212ZM12.0319 2.62466C10.6108 2.68919 9.25423 3.03717 7.96633 3.66757C6.89239 4.19321 6.0758 4.7781 5.21762 5.63628C4.00399 6.84989 3.18652 8.20001 2.65563 9.86763C2.34904 10.8307 2.20489 11.8111 2.20589 12.9265C2.20733 14.562 2.53505 15.98 3.24918 17.4407C3.52689 18.0088 3.76348 18.4099 4.08962 18.8657C5.63992 21.0322 7.89948 22.4983 10.4818 23.0132C11.7798 23.2721 13.2086 23.2721 14.5066 23.0132C16.7472 22.5664 18.7637 21.3936 20.2769 19.6571C22.6818 16.8973 23.4271 13.0257 22.2239 9.54262C21.5439 7.57388 20.2917 5.87238 18.5993 4.61739C16.7341 3.23414 14.3749 2.5183 12.0319 2.62466ZM12.2966 8.10026C12.124 8.14358 11.9906 8.22641 11.8608 8.37084C11.6418 8.61442 11.652 8.48971 11.6503 10.9352L11.6488 13.1047L11.7194 13.2621C11.7828 13.4034 12.0554 13.6847 14.3789 16.0066C17.2698 18.8956 17.0841 18.7319 17.4708 18.7319C17.815 18.7319 18.0781 18.5701 18.2309 18.2641C18.3016 18.1228 18.3138 18.0679 18.3135 17.8919C18.313 17.5034 18.4605 17.6721 15.7566 14.966L13.3382 12.5457L13.3309 10.6149L13.3236 8.68412L13.2602 8.56175C13.1712 8.39021 12.9987 8.22135 12.8447 8.15511C12.6909 8.08894 12.4411 8.06395 12.2966 8.10026Z" fill="white"/>
</svg>
