<svg width="274" height="316" viewBox="0 0 274 316" fill="none" xmlns="http://www.w3.org/2000/svg">
<path d="M163.849 260.653L164.671 259.258L165.185 260.104L165.735 261.054L166.26 262L166.54 262.523L166.825 263.074L167.113 263.646L167.4 264.236L167.681 264.84L167.952 265.452L168.209 266.068C168.251 266.171 168.292 266.273 168.332 266.376L168.562 266.989C169.437 269.431 169.75 271.691 168.361 272.445C164.89 274.33 158.286 273.14 158.874 270.542C158.924 270.324 159.006 270.064 159.115 269.77L159.296 269.305L159.512 268.797L159.759 268.251L160.033 267.674L160.485 266.764L160.972 265.821L161.481 264.865L162.169 263.608L162.995 262.138L163.849 260.653Z" fill="#BB0055"/>
<path d="M195.564 239.431L193.666 240.134L194.52 240.794L195.378 241.427L196 241.87L196.686 242.346L197.425 242.839L197.941 243.173L198.472 243.504L199.014 243.831L199.563 244.148L200.116 244.453L200.669 244.741L201.218 245.008C203.313 245.988 205.252 246.428 206.123 245.352C208.47 242.451 208.235 236.26 205.594 236.432C205.268 236.454 204.843 236.526 204.348 236.636L203.831 236.758L203.273 236.901L202.682 237.065L201.747 237.34L201.101 237.539L199.781 237.964L198.794 238.295L196.92 238.945L195.564 239.431Z" fill="#BB0055"/>
<path d="M171.927 278.253L154.533 235.917L153.733 235.454L153.144 235.093L152.212 234.498L151.558 234.062L150.84 233.569L150.328 233.208L149.513 232.618L148.648 231.97L147.738 231.263L147.109 230.76L146.464 230.23L145.804 229.675L145.131 229.093L144.447 228.486L143.753 227.853L143.051 227.194C137.404 221.816 131.115 213.944 127.812 203.553L126.809 200.433L125.863 197.558L124.802 194.42L123.823 191.607L122.922 189.103L122.366 187.597L121.595 185.573L120.793 183.545L120.283 182.304L119.656 180.838L118.994 179.379L118.448 178.26L118.122 177.644L117.915 177.291L114.412 175.808L110.031 173.928L104.681 171.595L100.398 169.691L98.4968 168.831L95.7141 167.554L93.5071 166.519L91.8465 165.722L90.6771 165.149L89.2374 164.424L88.2594 163.915L87.6613 163.594L87.1095 163.288L86.6069 163L86.1563 162.73L85.7604 162.48C85.5766 162.36 85.4145 162.247 85.2755 162.143C80.8122 158.808 79.9072 154.234 81.7967 153.436C82.3765 153.19 83.492 153.235 84.7561 153.415L85.3486 153.507C85.4487 153.523 85.5493 153.541 85.6502 153.559L86.2585 153.673L86.8668 153.797L87.4666 153.929L88.3318 154.132L89.6114 154.458L91.1351 154.885L103.368 139.528L103.126 139.483L102.734 139.394L102.481 139.328L102.198 139.246L101.888 139.147L101.555 139.029L101.205 138.892C101.146 138.868 101.085 138.842 101.025 138.816L100.656 138.647C98.6072 137.656 96.2609 135.637 96.9824 131.676L97.4832 131.477L98.048 131.266C98.1473 131.23 98.2491 131.194 98.3535 131.157L99.3575 130.813L100.485 130.447L102.163 129.931L104.017 129.384L106.023 128.814L108.157 128.224L111.545 127.315L114.485 126.547L119.287 125.321L124.037 124.136L132.123 122.17L140.532 120.181L171.742 142.335L172.383 142.814L172.783 143.129C172.847 143.182 172.911 143.234 172.974 143.286L173.342 143.602C174.95 145.033 175.95 146.611 176.698 149.679L176.86 150.386C176.913 150.63 176.964 150.883 177.015 151.145L177.163 151.96L177.305 152.834C177.329 152.984 177.352 153.138 177.375 153.294L177.474 154.003L177.543 154.56L177.618 155.233L177.789 156.907L178.035 159.56L178.373 163.454L178.879 169.618L179.709 180.251L180.968 197.049L182.634 220.092L206.463 250.504L206.098 251.16L205.723 251.795L205.32 252.44L204.955 253L204.38 253.839L203.88 254.534L203.514 255.027L203.12 255.543L202.698 256.08L202.248 256.637L201.768 257.214L201.259 257.809C201.085 258.01 200.905 258.215 200.72 258.422L200.15 259.051C200.052 259.157 199.953 259.264 199.853 259.371L199.236 260.023L198.587 260.689L197.905 261.367L197.189 262.058L196.44 262.759C196.313 262.877 196.183 262.995 196.053 263.114L195.252 263.83C194.979 264.07 194.701 264.312 194.416 264.555L193.545 265.287L192.637 266.025C187.542 270.103 180.777 274.428 171.927 278.253Z" fill="#EECEB5"/>
<path d="M99.8553 157.343L108.39 167.88L80.6426 155.735C81.0068 157.513 82.3739 159.815 84.921 161.736L85.0667 161.843L85.4026 162.072L85.7954 162.321L86.2424 162.589L86.7408 162.876L87.2877 163.18L88.1931 163.665L89.1921 164.182L90.6536 164.916L92.2425 165.692L93.5044 166.296L95.2627 167.124L98.0173 168.397L101.319 169.893L107.308 172.549L114.066 175.479L117.234 176.83L117.495 177.287L117.759 177.793L118.117 178.52L118.571 179.495L119.122 180.742L119.482 181.587L120.19 183.314L120.64 184.451L121.251 186.034L121.915 187.807L122.936 190.624L123.897 193.367L124.759 195.896L125.304 197.525L126.257 200.429L127.061 202.93C129.454 210.459 133.416 216.66 137.555 221.541L138.266 222.365C138.979 223.175 139.694 223.947 140.405 224.681L141.114 225.401L141.819 226.096L142.519 226.764L143.21 227.407L143.893 228.024L144.565 228.615L145.226 229.181L145.872 229.721L146.503 230.234L147.418 230.957L148.291 231.622L149.114 232.228L149.885 232.777L150.596 233.268L151.244 233.701L151.998 234.188L152.617 234.573L153.542 235.114L170.809 277.191C180.885 272.83 188.225 267.809 193.455 263.26L194.263 262.546C194.395 262.427 194.525 262.309 194.654 262.192L195.411 261.491C195.658 261.259 195.898 261.029 196.134 260.801L196.824 260.122L197.481 259.455L198.106 258.802C198.207 258.694 198.308 258.587 198.406 258.48L198.984 257.848L199.532 257.232C199.62 257.131 199.708 257.03 199.794 256.931L200.296 256.34L200.769 255.768L201.213 255.215L201.826 254.423L202.2 253.923L202.711 253.215L203.019 252.772L203.434 252.157L203.9 251.43L204.187 250.959L204.61 250.224L204.9 249.669L203.019 247.257C202.329 248.112 201.55 248.961 200.705 249.8L200.058 250.426L199.389 251.048C199.275 251.151 199.161 251.254 199.046 251.356L198.345 251.97C197.99 252.275 197.628 252.578 197.26 252.879L196.517 253.476C196.392 253.575 196.266 253.674 196.14 253.772L195.378 254.358L194.605 254.936L193.823 255.505C193.692 255.599 193.561 255.693 193.43 255.786L192.639 256.341L191.844 256.887L191.048 257.421L189.855 258.202L188.668 258.956L187.884 259.444L186.724 260.149L185.964 260.603L184.848 261.255L183.416 262.071L182.394 262.641L180.805 263.504L179.128 264.386L177.192 265.368L175.938 265.976L161.414 233.932L158.392 176.087L157.662 167.723L157.084 161.409L156.779 158.29L156.647 157.023L156.483 155.625L156.421 155.197L156.315 154.576L156.199 153.949C155.83 152.061 155.235 150.124 153.537 148.462L152.892 147.864L151.956 146.969L150.08 145.133L146.19 141.306L144.54 139.701L142.926 138.153L141.775 137.07L141.05 136.4L140.367 135.781C140.257 135.683 140.149 135.587 140.044 135.493L139.438 134.968C139.342 134.886 139.249 134.807 139.158 134.731L138.647 134.317C138.488 134.193 138.342 134.082 138.208 133.987L136.17 134.285L130.62 135.123L127.996 135.501L126.344 135.73L124.087 136.028L122.376 136.241L120.667 136.441L119.539 136.565L117.874 136.733L116.79 136.831L115.733 136.917L114.708 136.99L113.72 137.047C113.397 137.064 113.082 137.078 112.774 137.089L111.875 137.114L111.029 137.12C110.756 137.118 110.492 137.114 110.239 137.106C106.429 136.991 101.783 135.764 98.0863 134.567L96.9524 134.192C96.7694 134.13 96.5895 134.068 96.4131 134.008C96.9483 136.842 99.4002 138.207 101.091 138.821L101.481 138.954L101.834 139.061L102.141 139.144L102.498 139.227L102.747 139.274L96.488 147.178L102.681 149.013C99.7323 152.355 96.9136 153.774 94.7484 154.337L94.3099 154.441L93.8911 154.524C93.823 154.536 93.7558 154.547 93.6894 154.557L93.3021 154.61L92.937 154.646C92.878 154.65 92.8201 154.654 92.7631 154.658L92.4333 154.672L92.1283 154.674L91.7197 154.661L91.3728 154.632L91.0121 154.583L90.6668 154.511C90.7815 157.982 93.3045 158.59 95.6775 158.385L96.12 158.337L96.5553 158.273C96.627 158.262 96.6983 158.249 96.7691 158.236L97.1864 158.154L97.5872 158.063L97.9675 157.967L98.3237 157.868L98.8047 157.721L99.3264 157.545L99.6843 157.411L99.8553 157.343Z" fill="#E0A881"/>
<path d="M159.287 269.754C172.309 271.209 200.192 258.077 205.095 236.278C209.027 235.931 215.062 242.708 214.442 247.058C205.647 269.424 184.869 280.058 168.513 280.548C164.787 280.256 158.619 272.839 159.287 269.754Z" fill="#C82468"/>
<path d="M97.3029 136.712C94.1968 135.965 91.0734 137.877 90.3265 140.983C89.5796 144.09 91.4922 147.213 94.5983 147.96C97.7045 148.706 100.828 146.794 101.574 143.688C102.321 140.582 100.409 137.459 97.3029 136.712Z" fill="#ECEBE9"/>
<path d="M97.4772 137.222L96.9523 137.096C95.2415 136.684 93.5464 137.575 93.1859 139.074L92.8162 140.611C92.4556 142.111 93.5607 143.674 95.2715 144.086L95.7964 144.212C97.5072 144.623 99.2018 143.733 99.5624 142.233L99.9321 140.696C100.293 139.197 99.188 137.633 97.4772 137.222Z" fill="#340E00"/>
<path d="M97.4937 144.048C96.5365 143.817 96.7513 142.924 96.9488 142.103L97.1953 141.078L95.3974 140.645L95.1509 141.671C94.9534 142.492 94.675 143.37 93.7814 143.155C93.6052 143.113 93.4286 143.098 93.2557 143.107C93.5 144.066 94.254 144.862 95.2836 145.11C96.3116 145.357 97.3431 144.992 97.9971 144.251C97.8439 144.161 97.6751 144.091 97.4937 144.048Z" fill="#D7AD83"/>
<path d="M98.0054 144.256C97.3513 144.997 96.3199 145.361 95.2919 145.114C94.2623 144.867 93.5083 144.071 93.264 143.111C92.4674 143.153 91.7546 143.712 91.5592 144.525L91.2694 145.73C92.05 146.808 93.2033 147.624 94.5989 147.96C95.9942 148.295 97.3923 148.093 98.5777 147.488L98.8676 146.282C99.0617 145.475 98.6873 144.658 98.0054 144.256Z" fill="#54778F"/>
<path d="M95.9058 143.631C96.1745 143.695 96.4921 143.587 96.8011 143.37C96.7336 143.001 96.8427 142.541 96.9486 142.1L97.1951 141.075L95.3973 140.643L95.1507 141.668C95.1002 141.878 95.0443 142.092 94.9742 142.29C95.1295 142.966 95.4727 143.526 95.9058 143.631Z" fill="#C59264"/>
<path d="M97.4735 139.493C97.1872 139.952 95.3196 140.012 94.9812 139.709C94.8337 139.71 94.6782 139.883 94.6196 140.127C94.5557 140.392 94.6308 140.638 94.7871 140.68C94.7463 141.705 95.1839 142.79 95.8051 142.939C96.4261 143.088 97.309 142.321 97.7386 141.39C97.897 141.423 98.0754 141.239 98.1393 140.973C98.1619 140.879 98.1665 140.788 98.157 140.708C97.9579 140.547 97.5486 140.062 97.4735 139.493Z" fill="#D7AD83"/>
<path d="M77.5406 3.29674L145.723 20.3116L146.287 20.4684C149.078 21.3187 151.463 23.1746 152.972 25.6877C154.481 28.2009 154.998 31.1789 154.436 34.0418L154.31 34.6131L111.442 206.394L111.285 206.957C110.436 209.749 108.58 212.135 106.066 213.645C103.385 215.255 100.174 215.736 97.1389 214.983L28.9602 197.969L28.3974 197.813C25.6053 196.963 23.2188 195.107 21.7091 192.594C20.0988 189.913 19.6176 186.702 20.3706 183.667L63.2384 11.8863C63.9997 8.853 65.9329 6.24535 68.614 4.63518C71.1277 3.12557 74.1066 2.60757 76.9705 3.16956L77.5406 3.29674Z" fill="#F1F1F1" stroke="#9F9F9F" stroke-width="0.726115"/>
<path d="M29.7368 194.965C27.5008 194.407 25.5772 192.985 24.3879 191.011C23.1985 189.037 22.8404 186.672 23.3921 184.435L66.2631 12.6411C66.8284 10.4073 68.2558 8.48856 70.2329 7.30505C72.2099 6.12153 74.5754 5.76969 76.8114 6.32657L86.3182 8.69899L86.1458 9.38993C85.7 11.1762 85.9804 13.0663 86.9255 14.6462C87.8707 16.2262 89.4035 17.3671 91.1882 17.8192L126.868 26.7232C128.659 27.1644 130.551 26.8792 132.131 25.93C133.712 24.9808 134.852 23.4448 135.304 21.6573L135.476 20.9664L144.979 23.3378C147.211 23.8992 149.13 25.3219 150.315 27.2945C151.5 29.267 151.856 31.6289 151.304 33.863L108.433 205.657C107.871 207.888 106.447 209.806 104.474 210.99C102.501 212.175 100.139 212.529 97.9046 211.976L29.7368 194.965Z" fill="white"/>
<path d="M69.6623 160.718C70.4539 160.916 71.1346 161.42 71.5547 162.119C71.9747 162.818 72.0997 163.656 71.9022 164.448L70.0815 171.744C69.884 172.535 69.38 173.216 68.6806 173.636C67.9812 174.056 67.1436 174.181 66.352 173.983L59.0561 172.163C58.2645 171.965 57.5838 171.461 57.1638 170.762C56.7437 170.062 56.6187 169.225 56.8162 168.433L58.6369 161.137C58.8345 160.346 59.3384 159.665 60.0378 159.245C60.7372 158.825 61.5748 158.7 62.3664 158.898L69.6623 160.718ZM79.724 163.229L78.6207 167.65L83.0407 168.753L81.937 173.176L77.517 172.073L76.414 176.493L71.9901 175.389L73.0934 170.968L77.5147 172.071L78.618 167.65L74.1967 166.546L75.3001 162.125L79.724 163.229ZM86.3586 174.278L85.255 178.701L80.8337 177.597L81.937 173.176L86.3586 174.278ZM69.1658 162.708L61.8699 160.887C61.606 160.821 61.3268 160.863 61.0937 161.003C60.8605 161.143 60.6926 161.37 60.6267 161.634L58.806 168.93C58.669 169.479 59.0035 170.036 59.5527 170.173L66.8485 171.994C67.1124 172.059 67.3916 172.018 67.6248 171.878C67.8579 171.738 68.0259 171.511 68.0917 171.247L69.9124 163.951C69.9782 163.687 69.9366 163.408 69.7966 163.175C69.6565 162.942 69.4296 162.774 69.1658 162.708ZM66.8455 164.947L65.8524 168.927L61.8729 167.934L62.866 163.954L66.8455 164.947ZM88.5653 165.435L87.462 169.857L83.0407 168.753L84.144 164.332L88.5653 165.435ZM73.6347 144.8C74.4263 144.997 75.107 145.501 75.5271 146.201C75.9471 146.9 76.0721 147.738 75.8746 148.529L74.0539 155.825C73.8564 156.617 73.3525 157.298 72.653 157.718C71.9536 158.138 71.116 158.263 70.3244 158.065L63.0285 156.244C62.2369 156.047 61.5562 155.543 61.1362 154.844C60.7161 154.144 60.5911 153.307 60.7886 152.515L62.6093 145.219C62.8069 144.427 63.3108 143.747 64.0102 143.327C64.7096 142.907 65.5473 142.782 66.3388 142.979L73.6347 144.8ZM89.553 148.772C90.3446 148.97 91.0253 149.474 91.4454 150.173C91.8654 150.873 91.9904 151.71 91.7929 152.502L89.9722 159.798C89.7747 160.589 89.2708 161.27 88.5713 161.69C87.8719 162.11 87.0343 162.235 86.2427 162.038L78.9468 160.217C78.1552 160.019 77.4745 159.515 77.0545 158.816C76.6344 158.117 76.5094 157.279 76.7069 156.487L78.5276 149.191C78.7252 148.4 79.2291 147.719 79.9285 147.299C80.6279 146.879 81.4656 146.754 82.2571 146.952L89.553 148.772ZM73.1382 146.79L65.8423 144.969C65.5784 144.903 65.2992 144.945 65.0661 145.085C64.8329 145.225 64.665 145.452 64.5991 145.716L62.7784 153.011C62.6414 153.561 62.9759 154.118 63.5251 154.255L70.8209 156.075C71.0848 156.141 71.364 156.1 71.5972 155.96C71.8303 155.819 71.9983 155.593 72.0641 155.329L73.8848 148.033C73.9506 147.769 73.909 147.49 73.769 147.257C73.6289 147.023 73.402 146.856 73.1382 146.79ZM89.0565 150.762L81.7606 148.941C81.4967 148.876 81.2175 148.917 80.9844 149.057C80.7512 149.197 80.5833 149.424 80.5174 149.688L78.6967 156.984C78.5597 157.533 78.8942 158.09 79.4434 158.227L86.7392 160.048C87.0031 160.114 87.2823 160.072 87.5155 159.932C87.7486 159.792 87.9166 159.565 87.9824 159.301L89.8031 152.005C89.8689 151.741 89.8273 151.462 89.6873 151.229C89.5472 150.996 89.3203 150.828 89.0565 150.762ZM70.818 149.029L69.8249 153.009L65.8453 152.015L66.8384 148.036L70.818 149.029ZM86.7363 153.001L85.7432 156.981L81.7636 155.988L82.7567 152.008L86.7363 153.001Z" fill="#BC0055"/>
<path d="M109.635 108.831L70.2419 99L69.5496 101.774L108.943 111.605L109.635 108.831Z" fill="#F1F1F1"/>
<path d="M107.361 117.944L67.9674 108.113L67.2751 110.887L106.669 120.718L107.361 117.944Z" fill="#F1F1F1"/>
<path d="M95.6536 124.705L75.1247 119.582L74.4324 122.356L94.9613 127.479L95.6536 124.705Z" fill="#F1F1F1"/>
<path d="M167.493 234.149L167.254 235.574L164.675 234.717L163.652 234.361L162.825 234.061L162.248 233.843L161.651 233.61L161.037 233.362L160.406 233.098L159.76 232.816L159.099 232.518L158.427 232.2C158.313 232.146 158.2 232.091 158.086 232.035L157.396 231.689C157.165 231.571 156.932 231.449 156.698 231.324L155.991 230.938C155.754 230.805 155.516 230.67 155.277 230.53L154.558 230.101C154.077 229.807 153.593 229.498 153.108 229.174L152.381 228.674C152.259 228.589 152.138 228.503 152.017 228.416L151.289 227.879C145.959 223.852 140.768 217.754 138.038 208.382L136.678 203.669L135.245 198.579L134.083 194.319L133.415 191.798L132.716 189.072L132.032 186.267L131.532 184.056L131.305 182.946L131.205 182.386L129.002 180.007L125.786 176.468L123.389 173.783L121.474 171.605L119.846 169.724L118.543 168.198L117.257 166.669L116.313 165.529L115.395 164.403L114.508 163.296L113.659 162.215L113.118 161.512L112.598 160.826L112.103 160.158L111.633 159.51L111.191 158.884L110.779 158.282C110.713 158.184 110.648 158.087 110.584 157.991L110.221 157.429C109.931 156.972 109.678 156.545 109.467 156.153L108.884 155.024L108.44 154.139L107.88 152.983L107.49 152.134L107.246 151.577L107.018 151.028L106.806 150.487L106.611 149.954C106.58 149.866 106.55 149.779 106.521 149.691L106.355 149.172C105.162 145.227 105.803 142.097 110.933 140.424C113.593 139.556 116.703 141.432 119.968 144.466L120.623 145.088C120.841 145.3 121.061 145.517 121.281 145.738L121.943 146.414C122.053 146.528 122.164 146.643 122.274 146.76L122.939 147.468L123.606 148.194L124.609 149.311L125.612 150.454L127.282 152.388L129.601 155.085L130.583 156.21L131.232 156.944L132.197 158.011L132.834 158.697L133.464 159.358C135.241 161.196 136.939 162.71 138.502 163.613C138.786 163.777 139.074 163.938 139.364 164.097L140.244 164.565L141.14 165.02C141.291 165.095 141.443 165.17 141.595 165.245L142.514 165.688C142.669 165.761 142.824 165.834 142.98 165.908L147.298 167.898L148.284 168.361L149.276 168.837L150.274 169.331C155.607 172.016 161.128 175.564 166.021 182.085C169.329 186.487 170.301 195.267 170.234 204.462L170.216 205.917L170.181 207.375C170.166 207.862 170.15 208.348 170.13 208.834L170.067 210.288L169.99 211.736L169.902 213.173C169.886 213.412 169.87 213.65 169.854 213.887L169.695 216.003L169.518 218.071L169.392 219.419L169.26 220.737L169.056 222.651L168.916 223.88L168.703 225.644L168.492 227.303L168.218 229.331L167.901 231.531L167.493 234.149Z" fill="#EECEB5"/>
<path d="M104.991 39.1301C92.0848 36.0983 79.165 44.1027 76.1332 57.0088C73.1014 69.9149 81.1061 82.8336 94.0122 85.8654C106.918 88.8972 119.838 80.8939 122.87 67.9878C125.901 55.0817 117.897 42.1619 104.991 39.1301Z" fill="#F1F1F1"/>
<path d="M88.7925 65.8662L92.6883 49.2821C93.8083 44.5147 98.6252 41.5295 103.394 42.6497L104.855 42.9931C109.624 44.1132 112.608 48.9309 111.488 53.6983L107.592 70.2824L88.7925 65.8662Z" fill="#C6AC9F"/>
<path d="M108.071 70.4177L88.3699 65.7711C85.065 65.9622 82.1193 68.2988 81.3261 71.6753L80.1495 76.6839C83.4125 81.1404 88.2172 84.5014 94.0149 85.8633C99.8125 87.2252 105.61 86.3549 110.516 83.8174L111.693 78.8088C112.481 75.4541 110.91 72.072 108.071 70.4177Z" fill="#C82468"/>
<path d="M105.946 69.5735C101.969 68.6392 102.841 64.9269 103.642 61.5151L104.643 57.255L97.1727 55.5001L96.1719 59.7602C95.3705 63.1721 94.2354 66.8225 90.5211 65.95C89.7892 65.7781 89.0559 65.7199 88.3398 65.7611C89.3745 69.7381 92.5197 73.024 96.7975 74.029C101.069 75.0324 105.342 73.4969 108.039 70.4075C107.402 70.035 106.7 69.7505 105.946 69.5735Z" fill="#EFD6CE"/>
<path d="M99.347 67.8889C100.462 68.1509 101.779 67.6957 103.057 66.787C102.768 65.2593 103.211 63.346 103.641 61.5164L104.642 57.2563L97.1716 55.5015L96.1709 59.7616C95.9657 60.6348 95.7385 61.5226 95.4519 62.3459C96.1109 65.1487 97.5475 67.4662 99.347 67.8889Z" fill="#D3B6AE"/>
<path d="M107.43 52.2027C106.048 52.8225 104.272 53.105 102.376 52.9119C99.9143 52.6595 97.8163 51.6631 96.6013 50.34C96.2973 51.0551 94.7237 52.2529 94.3854 52.3062C94.1875 52.5932 94.0258 52.9545 93.9298 53.363C93.6705 54.467 93.9875 55.4849 94.636 55.6569C94.4891 59.9103 96.3287 64.4021 98.9099 65.0085C101.491 65.6149 105.137 62.4117 106.9 58.5378C107.557 58.6725 108.294 57.9023 108.553 56.7983C108.647 56.4011 108.664 56.0181 108.62 55.6796C107.925 55.036 107.373 53.3883 107.43 52.2027Z" fill="#EFD6CE"/>
</svg>
