<svg width="23" height="26" viewBox="0 0 23 26" fill="none" xmlns="http://www.w3.org/2000/svg">
<path d="M1.02836 4.32697V12.5049C1.02838 15.0898 1.81169 17.614 3.27504 19.7448C4.73838 21.8755 6.81306 23.5129 9.2256 24.4409L10.3437 24.8705C11.0883 25.157 11.9127 25.157 12.6572 24.8705L13.7753 24.4409C16.1878 23.5129 18.2625 21.8755 19.7259 19.7448C21.1892 17.614 21.9725 15.0898 21.9725 12.5049V4.32697C21.9746 4.01923 21.8877 3.71745 21.7224 3.45793C21.557 3.19841 21.3201 2.99219 21.0402 2.8641C18.0328 1.55137 14.7819 0.888533 11.5004 0.918972C8.21905 0.888533 4.9682 1.55137 1.96064 2.8641C1.68083 2.99219 1.44397 3.19841 1.27859 3.45793C1.1132 3.71745 1.0263 4.01923 1.02836 4.32697Z" stroke="white" stroke-width="1.7185" stroke-linecap="round" stroke-linejoin="round"/>
<path d="M7.07812 6H10.4213V12.0356L12.8643 9.22536H16.8906L13.8287 12.1952L17.0674 17.7039H13.3787L11.6508 14.3029L10.4213 15.5004V17.7039H7.07812V6Z" fill="white"/>
</svg>
