<svg width="16" height="16" viewBox="0 0 16 16" fill="none" xmlns="http://www.w3.org/2000/svg">
<path fill-rule="evenodd" clip-rule="evenodd" d="M1.65142 4.64325C1.8494 4.45073 2.16595 4.45516 2.35846 4.65313L8 10.4546L13.6415 4.65313C13.8341 4.45516 14.1506 4.45073 14.3486 4.64325C14.5465 4.83576 14.551 5.15231 14.3585 5.35029L8.64143 11.2294C8.64136 11.2295 8.64129 11.2296 8.64122 11.2296C8.64119 11.2297 8.64116 11.2297 8.64113 11.2297C8.28878 11.5924 7.71122 11.5924 7.35887 11.2297C7.35884 11.2297 7.35881 11.2297 7.35878 11.2296C7.35871 11.2296 7.35864 11.2295 7.35857 11.2294L1.64154 5.35029C1.44903 5.15231 1.45345 4.83576 1.65142 4.64325Z" fill="black"/>
</svg>
