<svg width="24" height="24" viewBox="0 0 24 24" fill="none" xmlns="http://www.w3.org/2000/svg">
<g clip-path="url(#clip0_7922_10373)">
<g clip-path="url(#clip1_7922_10373)">
<path d="M22.72 0.21967C23.0129 -0.0732233 23.4877 -0.0732233 23.7806 0.21967C24.0734 0.512563 24.0734 0.987324 23.7806 1.28022L1.28055 23.7802C0.987659 24.0731 0.512898 24.0731 0.220005 23.7802C-0.0728882 23.4873 -0.0728882 23.0126 0.220005 22.7197L22.72 0.21967Z" fill="white"/>
<path d="M14.2503 20.2499C14.2503 19.6532 14.0131 19.0811 13.5911 18.6591C13.2219 18.29 12.7379 18.0619 12.2229 18.0107L12.0003 17.9999C11.4035 17.9999 10.8314 18.2372 10.4095 18.6591C9.9875 19.0811 9.75028 19.6532 9.75028 20.2499C9.75028 20.8467 9.9875 21.4188 10.4095 21.8408C10.8314 22.2627 11.4035 22.4999 12.0003 22.4999L12.2229 22.4892C12.7379 22.438 13.2219 22.2099 13.5911 21.8408C14.0131 21.4188 14.2503 20.8467 14.2503 20.2499ZM15.7503 20.2499C15.7503 21.2445 15.3549 22.198 14.6516 22.9013C13.9922 23.5607 13.1128 23.9492 12.1858 23.9951L12.0003 23.9999C11.0057 23.9999 10.0522 23.6046 9.34891 22.9013C8.64565 22.198 8.25028 21.2445 8.25028 20.2499C8.25028 19.2554 8.64565 18.3018 9.34891 17.5986C10.0522 16.8953 11.0057 16.4999 12.0003 16.4999L12.1858 16.5048C13.1128 16.5507 13.9922 16.9392 14.6516 17.5986C15.3549 18.3018 15.7503 19.2554 15.7503 20.2499Z" fill="white"/>
<path d="M14.3617 13.0953C14.5299 12.7168 14.9735 12.5463 15.352 12.7144C16.2757 13.1246 17.1158 13.7018 17.8305 14.4165C18.1233 14.7094 18.1233 15.1842 17.8305 15.4771C17.5376 15.77 17.0628 15.77 16.7699 15.4771C16.1855 14.8926 15.498 14.4209 14.7426 14.0855C14.3642 13.9173 14.1937 13.4738 14.3617 13.0953Z" fill="white"/>
<path d="M11.2057 7.52392C11.619 7.49877 11.9743 7.81376 11.9997 8.22705C12.0249 8.64049 11.71 8.99673 11.2965 9.02197C8.56082 9.18906 5.98134 10.3531 4.04653 12.2944C3.75419 12.5877 3.27938 12.5886 2.98598 12.2964C2.69266 12.004 2.69181 11.5292 2.98403 11.2358C5.17809 9.03443 8.10341 7.71327 11.2057 7.52392Z" fill="white"/>
<path d="M17.3049 9.4559C17.5109 9.09675 17.969 8.97272 18.3283 9.17855C19.3115 9.7418 20.2152 10.4334 21.0158 11.2352C21.3085 11.5283 21.3079 12.0031 21.0148 12.2957C20.7217 12.5882 20.2469 12.5878 19.9543 12.2948C19.2477 11.5872 18.4499 10.9764 17.5822 10.4793C17.2231 10.2733 17.0991 9.8152 17.3049 9.4559Z" fill="white"/>
<path d="M7.14676 3.69505C9.72473 2.93906 12.4442 2.79632 15.0872 3.27806C15.4944 3.3525 15.7638 3.74284 15.6897 4.15013C15.6155 4.55763 15.2252 4.82792 14.8177 4.75364C12.4047 4.31385 9.92225 4.44427 7.56864 5.1345C5.21499 5.82476 3.05528 7.05584 1.262 8.72923C0.959159 9.01182 0.484047 8.99593 0.20145 8.6931C-0.0811454 8.39026 -0.064281 7.91515 0.23856 7.63255C2.20282 5.79961 4.56871 4.45111 7.14676 3.69505Z" fill="white"/>
<path d="M20.1785 5.89955C20.3997 5.54939 20.8625 5.44494 21.2127 5.66615C22.1219 6.24063 22.9751 6.89922 23.7615 7.63295C24.0643 7.91553 24.0812 8.38967 23.7986 8.69252C23.5161 8.99524 23.0419 9.01184 22.739 8.72963C22.0212 8.05982 21.2419 7.45816 20.4119 6.93373C20.0617 6.71249 19.9573 6.24972 20.1785 5.89955Z" fill="white"/>
</g>
</g>
<defs>
<clipPath id="clip0_7922_10373">
<rect width="24" height="24" fill="white"/>
</clipPath>
<clipPath id="clip1_7922_10373">
<rect width="24" height="24" fill="white"/>
</clipPath>
</defs>
</svg>
