<svg width="24" height="24" viewBox="0 0 24 24" fill="none" xmlns="http://www.w3.org/2000/svg">
<path d="M23.7803 6.21973C23.9209 6.36038 24 6.55109 24 6.75V17.25C24 17.4489 23.9209 17.6396 23.7803 17.7803L17.7803 23.7803C17.6396 23.9209 17.4489 24 17.25 24H6.75C6.55109 24 6.36038 23.9209 6.21973 23.7803L4.28027 21.8408L5.34082 20.7803L7.06055 22.5H16.9395L22.5 16.9395V7.06055L20.7803 5.34082L21.8408 4.28027L23.7803 6.21973ZM17.25 0C17.4489 0 17.6396 0.0790856 17.7803 0.219727L19.7197 2.15918L21.3691 0.509766C21.662 0.216872 22.1368 0.216872 22.4297 0.509766C22.7226 0.80266 22.7226 1.27742 22.4297 1.57031L1.57031 22.4297C1.27742 22.7226 0.80266 22.7226 0.509766 22.4297C0.216872 22.1368 0.216872 21.662 0.509766 21.3691L2.15918 19.7197L0.219727 17.7803C0.0790856 17.6396 0 17.4489 0 17.25V6.75C3.62263e-06 6.55109 0.0790772 6.36038 0.219727 6.21973L6.21973 0.219727C6.36038 0.0790772 6.55109 3.62263e-06 6.75 0H17.25ZM1.5 7.06055V16.9395L3.21973 18.6592L7.17383 14.7041L6.49512 13.9482C6.35359 13.7884 6.26831 13.5863 6.25293 13.373C6.23757 13.1598 6.293 12.9471 6.41016 12.7686C6.54796 12.5641 6.75815 12.4198 6.99805 12.3652C7.23811 12.3107 7.48992 12.3505 7.70215 12.4756L8.76172 13.1162L9.12695 12.751L8.42578 7.79395C8.39636 7.5582 8.45378 7.31952 8.58691 7.12305C8.72008 6.92663 8.92013 6.78573 9.14941 6.72656C9.27628 6.69422 9.40872 6.68795 9.53809 6.70801C9.66724 6.72809 9.79127 6.77365 9.90234 6.84277C10.0136 6.91204 10.1102 7.0039 10.1855 7.11133C10.2607 7.21865 10.3134 7.34047 10.3408 7.46875L11.0195 10.8584L11.0645 10.8145V6.92383C11.0637 6.80013 11.0881 6.67757 11.1357 6.56348C11.1834 6.44939 11.2534 6.34598 11.3418 6.25977C11.4301 6.17368 11.5346 6.10604 11.6494 6.06152C11.7644 6.01702 11.8876 5.9967 12.0107 6.00098C12.2548 6.00098 12.4895 6.09831 12.6621 6.27148C12.8344 6.44458 12.9316 6.67917 12.9316 6.92383V8.94727L13.417 8.46094L13.6064 7.44141C13.6314 7.31516 13.6823 7.19502 13.7549 7.08887C13.8274 6.98281 13.921 6.89304 14.0293 6.82422C14.1378 6.75532 14.259 6.70887 14.3857 6.68848C14.5124 6.6681 14.6422 6.67368 14.7666 6.70508C14.8678 6.73064 14.9626 6.77332 15.0488 6.8291L18.6592 3.21973L16.9395 1.5H7.06055L1.5 7.06055ZM17.5537 8.56641C17.6242 8.651 17.6798 8.7477 17.7129 8.85449C17.7711 9.04264 17.7616 9.2457 17.6865 9.42773L16.3037 12.9072C16.1722 13.2345 16.1049 13.5847 16.1064 13.9375V15.251C16.106 15.6809 16.0064 16.1049 15.8145 16.4893C15.6224 16.8737 15.3431 17.2081 15 17.4658C14.5193 17.8199 13.937 18.0077 13.3408 18H11.373C10.9865 18.0021 10.6037 17.9219 10.25 17.7656C9.89625 17.6093 9.57878 17.3803 9.31934 17.0928L9.18066 16.9395L14.7617 11.3584L14.7236 11.5518L14.877 11.2432L17.5537 8.56641Z" fill="white"/>
</svg>
