<svg width="24" height="24" viewBox="0 0 24 24" fill="none" xmlns="http://www.w3.org/2000/svg">
<path fill-rule="evenodd" clip-rule="evenodd" d="M1.96387 0.0188278C1.77245 0.0463224 1.41391 0.15625 1.26249 0.233913C0.92261 0.408191 0.5962 0.703261 0.370176 1.04057C0.213041 1.27509 0.143515 1.43452 0.0549373 1.76351L0 1.96755V9.74665C0 17.2254 0.00181088 17.5335 0.0471839 17.727C0.209445 18.4193 0.648791 18.9776 1.27524 19.2874C1.72754 19.511 1.73624 19.5121 3.19386 19.5219L4.47486 19.5305L4.48185 21.4758L4.48884 23.4211L4.56543 23.5708C4.65506 23.7461 4.85343 23.9215 5.01768 23.9708C5.16684 24.0155 5.46134 24.0076 5.57981 23.9558C5.63276 23.9326 6.98706 22.9297 8.58937 21.7271L11.5027 19.5407L16.7949 19.5279L22.0871 19.5152L22.2912 19.458C23.1288 19.2235 23.7549 18.5712 23.9528 17.727C23.9982 17.5335 24 17.2254 24 9.74665C24 2.45075 23.9972 1.95689 23.9558 1.79573C23.7978 1.18125 23.4723 0.715044 22.9631 0.373835C22.7355 0.221314 22.5829 0.153597 22.2529 0.0586669L22.0616 0.00365218L12.0893 0.000259973C6.60446 -0.00160191 2.04803 0.0067383 1.96387 0.0188278ZM2.07145 1.63433C1.85394 1.71207 1.67569 1.8993 1.61909 2.10952C1.60257 2.17093 1.59604 4.83995 1.6003 9.8136C1.60672 17.3229 1.60746 17.4251 1.65697 17.5249C1.71637 17.6447 1.86391 17.7981 1.98165 17.8623C2.05972 17.905 2.18997 17.9093 3.76196 17.9211L5.45802 17.9338L5.5983 18.0005C5.77673 18.0852 5.91874 18.2272 6.00349 18.4057L6.07014 18.546L6.08289 20.0714L6.09564 21.5968L8.46654 19.8189C9.77052 18.8411 10.8895 18.0169 10.9533 17.9874L11.0691 17.9338L16.5016 17.9211C21.6747 17.9089 21.9381 17.9061 22.0184 17.8623C22.1361 17.7981 22.2836 17.6447 22.343 17.5249C22.3926 17.425 22.3932 17.3294 22.3932 9.7594V2.09508L22.3368 1.98964C22.265 1.85538 22.1483 1.73867 22.014 1.66687L21.9086 1.61048L12.0383 1.60515C3.79904 1.60071 2.15197 1.60553 2.07145 1.63433ZM5.0627 6.74803C4.8214 6.82207 4.61688 7.01376 4.52802 7.2492C4.38221 7.63551 4.56742 8.06823 4.95673 8.25074L5.10096 8.31836H12H18.899L19.0433 8.25074C19.6603 7.96146 19.6808 7.12275 19.0786 6.8049L18.9501 6.73703L12.0383 6.73275C8.23677 6.7304 5.09777 6.73729 5.0627 6.74803ZM4.9717 11.2656C4.81793 11.3248 4.63725 11.4967 4.55056 11.6663C4.49958 11.7661 4.48884 11.8248 4.48884 12.0039C4.48884 12.1829 4.49958 12.2417 4.55056 12.3414C4.64009 12.5166 4.81752 12.683 4.97943 12.7436C5.11544 12.7944 5.16048 12.7948 10.5413 12.7883L15.966 12.7818L16.0808 12.7222C16.3701 12.5722 16.5241 12.3227 16.5241 12.0039C16.5241 11.7501 16.4531 11.5872 16.2696 11.4194C16.0221 11.1933 16.5791 11.213 10.4971 11.2145C5.21017 11.2158 5.09833 11.2169 4.9717 11.2656Z" fill="#666666"/>
</svg>
