<svg width="16" height="16" viewBox="0 0 16 16" fill="none" xmlns="http://www.w3.org/2000/svg">
<g clip-path="url(#clip0_23923_101)">
<path d="M8.34238 0.340426C8.34238 0.152414 8.18996 0 8.00195 0C7.81394 0 7.66153 0.152414 7.66153 0.340426V7.65957H0.342379C0.154367 7.65957 0.00195312 7.81199 0.00195312 8C0.00195312 8.18801 0.154367 8.34043 0.342379 8.34043H7.66153V15.6596C7.66153 15.8476 7.81394 16 8.00195 16C8.18996 16 8.34238 15.8476 8.34238 15.6596V8.34043H15.6615C15.8495 8.34043 16.002 8.18801 16.002 8C16.002 7.81199 15.8495 7.65957 15.6615 7.65957H8.34238V0.340426Z" fill="#BC0055"/>
</g>
<defs>
<clipPath id="clip0_23923_101">
<rect width="16" height="16" fill="white"/>
</clipPath>
</defs>
</svg>
